<svg width="34" height="34" viewBox="0 0 34 34" fill="none" xmlns="http://www.w3.org/2000/svg">
<mask id="mask0_254_35" style="mask-type:alpha" maskUnits="userSpaceOnUse" x="0" y="0" width="34" height="34">
<rect width="34" height="34" fill="#D9D9D9"/>
</mask>
<g mask="url(#mask0_254_35)">
<path d="M8.49999 29.7502C8.0986 29.7502 7.76214 29.6144 7.49061 29.3429C7.21909 29.0713 7.08332 28.7349 7.08332 28.3335V25.4293C6.65832 24.9571 6.31596 24.4318 6.05624 23.8533C5.79652 23.2748 5.66666 22.6432 5.66666 21.9585V8.50016C5.66666 6.54044 6.57568 5.10607 8.39374 4.19704C10.2118 3.28801 13.0805 2.8335 17 2.8335C21.0611 2.8335 23.9653 3.2703 25.7125 4.14391C27.4597 5.01752 28.3333 6.46961 28.3333 8.50016V21.9585C28.3333 22.6432 28.2035 23.2748 27.9437 23.8533C27.684 24.4318 27.3417 24.9571 26.9167 25.4293V28.3335C26.9167 28.7349 26.7809 29.0713 26.5094 29.3429C26.2378 29.6144 25.9014 29.7502 25.5 29.7502H24.0833C23.6819 29.7502 23.3455 29.6144 23.0739 29.3429C22.8024 29.0713 22.6667 28.7349 22.6667 28.3335V26.9168H11.3333V28.3335C11.3333 28.7349 11.1976 29.0713 10.926 29.3429C10.6545 29.6144 10.318 29.7502 9.91666 29.7502H8.49999ZM8.49999 14.1668H25.5V9.91683H8.49999V14.1668ZM12.0417 22.6668C12.6319 22.6668 13.1337 22.4602 13.5469 22.047C13.9601 21.6338 14.1667 21.1321 14.1667 20.5418C14.1667 19.9516 13.9601 19.4498 13.5469 19.0366C13.1337 18.6234 12.6319 18.4168 12.0417 18.4168C11.4514 18.4168 10.9496 18.6234 10.5364 19.0366C10.1233 19.4498 9.91666 19.9516 9.91666 20.5418C9.91666 21.1321 10.1233 21.6338 10.5364 22.047C10.9496 22.4602 11.4514 22.6668 12.0417 22.6668ZM21.9583 22.6668C22.5486 22.6668 23.0503 22.4602 23.4635 22.047C23.8767 21.6338 24.0833 21.1321 24.0833 20.5418C24.0833 19.9516 23.8767 19.4498 23.4635 19.0366C23.0503 18.6234 22.5486 18.4168 21.9583 18.4168C21.368 18.4168 20.8663 18.6234 20.4531 19.0366C20.0399 19.4498 19.8333 19.9516 19.8333 20.5418C19.8333 21.1321 20.0399 21.6338 20.4531 22.047C20.8663 22.4602 21.368 22.6668 21.9583 22.6668Z" fill="#088395"/>
</g>
</svg>
