<svg width="34" height="34" viewBox="0 0 34 34" fill="none" xmlns="http://www.w3.org/2000/svg">
<circle cx="17" cy="17" r="17" fill="#088395"/>
<mask id="mask0_254_36" style="mask-type:alpha" maskUnits="userSpaceOnUse" x="1" y="1" width="32" height="32">
<rect x="1.78946" y="1.78955" width="30.4211" height="30.4211" fill="#D9D9D9"/>
</mask>
<g mask="url(#mask0_254_36)">
<path d="M9.53509 29.0833C9.17595 29.0833 8.87491 28.9619 8.63196 28.7189C8.38902 28.476 8.26754 28.1749 8.26754 27.8158V25.2173C7.88728 24.7948 7.58096 24.3248 7.34857 23.8072C7.11619 23.2896 7 22.7245 7 22.1118V10.0702C7 8.31674 7.81334 7.03335 9.44002 6.22001C11.0667 5.40667 13.6335 5 17.1404 5C20.774 5 23.3724 5.39083 24.9357 6.17248C26.499 6.95413 27.2807 8.25336 27.2807 10.0702V22.1118C27.2807 22.7245 27.1645 23.2896 26.9321 23.8072C26.6997 24.3248 26.3934 24.7948 26.0132 25.2173V27.8158C26.0132 28.1749 25.8917 28.476 25.6487 28.7189C25.4058 28.9619 25.1048 29.0833 24.7456 29.0833H23.4781C23.1189 29.0833 22.8179 28.9619 22.5749 28.7189C22.332 28.476 22.2105 28.1749 22.2105 27.8158V26.5482H12.0702V27.8158C12.0702 28.1749 11.9487 28.476 11.7058 28.7189C11.4628 28.9619 11.1618 29.0833 10.8026 29.0833H9.53509ZM9.53509 15.1404H24.7456V11.3377H9.53509V15.1404ZM12.7039 22.7456C13.2321 22.7456 13.681 22.5608 14.0507 22.1911C14.4204 21.8214 14.6053 21.3724 14.6053 20.8443C14.6053 20.3162 14.4204 19.8672 14.0507 19.4975C13.681 19.1278 13.2321 18.943 12.7039 18.943C12.1758 18.943 11.7269 19.1278 11.3572 19.4975C10.9875 19.8672 10.8026 20.3162 10.8026 20.8443C10.8026 21.3724 10.9875 21.8214 11.3572 22.1911C11.7269 22.5608 12.1758 22.7456 12.7039 22.7456ZM21.5768 22.7456C22.1049 22.7456 22.5538 22.5608 22.9235 22.1911C23.2932 21.8214 23.4781 21.3724 23.4781 20.8443C23.4781 20.3162 23.2932 19.8672 22.9235 19.4975C22.5538 19.1278 22.1049 18.943 21.5768 18.943C21.0486 18.943 20.5997 19.1278 20.23 19.4975C19.8603 19.8672 19.6754 20.3162 19.6754 20.8443C19.6754 21.3724 19.8603 21.8214 20.23 22.1911C20.5997 22.5608 21.0486 22.7456 21.5768 22.7456Z" fill="#E1FFEE"/>
</g>
</svg>
